<?xml version="1.0" encoding="UTF-8" standalone="no"?>
<!-- Created with Inkscape (http://www.inkscape.org/) -->

<svg
   xmlns:dc="http://purl.org/dc/elements/1.1/"
   xmlns:cc="http://creativecommons.org/ns#"
   xmlns:rdf="http://www.w3.org/1999/02/22-rdf-syntax-ns#"
   xmlns:svg="http://www.w3.org/2000/svg"
   xmlns="http://www.w3.org/2000/svg"
   xmlns:sodipodi="http://sodipodi.sourceforge.net/DTD/sodipodi-0.dtd"
   xmlns:inkscape="http://www.inkscape.org/namespaces/inkscape"
   id="svg2"
   version="1.1"
   inkscape:version="0.91 r13725"
   width="171"
   height="140"
   xml:space="preserve"
   sodipodi:docname="logo_pos.svg"
   inkscape:export-filename="C:\Users\Jonas\Dropbox\School stick\4__SLHD\Logos\SLHD logo secundaire school.png"
   inkscape:export-xdpi="300"
   inkscape:export-ydpi="300"><metadata
     id="metadata8"><rdf:RDF><cc:Work
         rdf:about=""><dc:format>image/svg+xml</dc:format><dc:type
           rdf:resource="http://purl.org/dc/dcmitype/StillImage" /><dc:title></dc:title></cc:Work></rdf:RDF></metadata><defs
     id="defs6"><clipPath
       clipPathUnits="userSpaceOnUse"
       id="clipPath16"><path
         d="m 5.42,12.046 188.658,0 0,118.674 -188.658,0 0,-118.674 z"
         id="path18"
         inkscape:connector-curvature="0" /></clipPath><clipPath
       clipPathUnits="userSpaceOnUse"
       id="clipPath32"><path
         d="m 5.42,12.046 188.658,0 0,118.674 -188.658,0 0,-118.674 z"
         id="path34"
         inkscape:connector-curvature="0" /></clipPath><clipPath
       clipPathUnits="userSpaceOnUse"
       id="clipPath50"><path
         d="m 5.42,12.046 188.658,0 0,118.674 -188.658,0 0,-118.674 z"
         id="path52"
         inkscape:connector-curvature="0" /></clipPath><clipPath
       clipPathUnits="userSpaceOnUse"
       id="clipPath74"><path
         d="m 5.42,12.046 188.658,0 0,118.674 -188.658,0 0,-118.674 z"
         id="path76"
         inkscape:connector-curvature="0" /></clipPath><clipPath
       clipPathUnits="userSpaceOnUse"
       id="clipPath98"><path
         d="m 5.42,12.046 188.658,0 0,118.674 -188.658,0 0,-118.674 z"
         id="path100"
         inkscape:connector-curvature="0" /></clipPath><clipPath
       clipPathUnits="userSpaceOnUse"
       id="clipPath126"><path
         d="m 5.42,12.046 188.658,0 0,118.674 -188.658,0 0,-118.674 z"
         id="path128"
         inkscape:connector-curvature="0" /></clipPath><linearGradient
       x1="0"
       y1="0"
       x2="1"
       y2="0"
       gradientUnits="userSpaceOnUse"
       gradientTransform="matrix(-70.951253,-20.701836,-20.701836,70.951253,81.21432,100.99134)"
       spreadMethod="pad"
       id="linearGradient208"><stop
         style="stop-opacity:1;stop-color:#fab417"
         offset="0"
         id="stop210" /><stop
         style="stop-opacity:1;stop-color:#f5781a"
         offset="1"
         id="stop212" /></linearGradient></defs><sodipodi:namedview
     pagecolor="#ffffff"
     bordercolor="#666666"
     borderopacity="1"
     objecttolerance="10"
     gridtolerance="10"
     guidetolerance="10"
     inkscape:pageopacity="0"
     inkscape:pageshadow="2"
     inkscape:window-width="1366"
     inkscape:window-height="705"
     id="namedview4"
     showgrid="false"
     inkscape:zoom="1.3320916"
     inkscape:cx="-70.415454"
     inkscape:cy="87.081099"
     inkscape:window-x="-8"
     inkscape:window-y="-8"
     inkscape:window-maximized="1"
     inkscape:current-layer="g10" /><g
     id="g10"
     inkscape:groupmode="layer"
     inkscape:label="SLHD logo secundaire school"
     transform="matrix(1.25,0,0,-1.25,0,140.00001)"><g
       id="g3435"
       transform="matrix(0.67411792,0,0,0.67411792,1.4457815,7.8793137)"><g
         id="g12"><g
           clip-path="url(#clipPath16)"
           id="g14"><g
             transform="translate(82.2836,52.7005)"
             id="g20"><path
               inkscape:connector-curvature="0"
               id="path22"
               style="fill:#231f20;fill-opacity:1;fill-rule:nonzero;stroke:none"
               d="m 0,0 0,2.492 0.244,0 C 1.399,2.158 4.165,1.55 5.927,1.55 l 0.943,0 c 2.856,0 4.772,1.063 4.772,3.921 0,2.492 -1.278,3.283 -3.344,3.798 L 5.229,10.09 c -2.188,0.547 -4.985,2.036 -4.985,6.079 0,3.676 2.827,6.169 7.356,6.169 l 0.698,0 c 1.673,0 4.285,-0.486 5.229,-0.941 l 0,-2.402 -0.245,0 c -1.094,0.364 -3.432,0.85 -4.984,0.85 l -0.698,0 c -2.858,0 -4.529,-1.062 -4.529,-3.676 0,-2.371 1.49,-3.069 3.344,-3.557 l 2.946,-0.85 c 2.342,-0.638 5.107,-1.884 5.107,-6.291 0,-3.921 -2.826,-6.413 -7.598,-6.413 l -0.943,0 C 4.043,-0.942 0.943,-0.334 0,0" /></g></g></g><g
         transform="translate(100.911,66.2558)"
         id="g24"><path
           inkscape:connector-curvature="0"
           id="path26"
           style="fill:#231f20;fill-opacity:1;fill-rule:nonzero;stroke:none"
           d="m 0,0 -2.826,0 0,2.371 5.439,0 0,-16.625 -2.613,0 L 0,0 Z m 0,8.54 2.613,0 0,-2.857 -2.613,0 0,2.857 z" /></g><g
         id="g28"><g
           clip-path="url(#clipPath32)"
           id="g30"><g
             transform="translate(108.6964,68.6265)"
             id="g36"><path
               inkscape:connector-curvature="0"
               id="path38"
               style="fill:#231f20;fill-opacity:1;fill-rule:nonzero;stroke:none"
               d="m 0,0 2.616,0 0,-3.069 1.186,1.153 c 1.184,1.186 2.613,2.158 4.738,2.158 2.616,0 4.499,-1.427 4.499,-5.714 l 0,-11.153 -2.583,0 0,11.153 c 0,2.615 -1.216,3.344 -2.613,3.344 -1.671,0 -3.344,-1.672 -4.287,-2.613 l -0.94,-0.944 0,-10.94 -2.616,0 L 0,0 Z" /></g><g
             transform="translate(127.7023,57.7155)"
             id="g40"><path
               inkscape:connector-curvature="0"
               id="path42"
               style="fill:#231f20;fill-opacity:1;fill-rule:nonzero;stroke:none"
               d="m 0,0 0,8.54 -2.613,0 0,2.37 2.613,0 0,3.8 2.614,0 0,-3.8 4.741,0 0,-2.37 -4.741,0 0,-8.084 c 0,-3.071 0.942,-3.8 3.556,-3.8 l 1.67,0 0,-2.371 -2.126,0 C 2.158,-5.715 0,-4.043 0,0" /></g></g></g><path
         inkscape:connector-curvature="0"
         id="path44"
         style="fill:#231f20;fill-opacity:1;fill-rule:nonzero;stroke:none"
         d="m 136.193,64.34 8.54,0 0,-2.371 -8.54,0 0,2.371 z" /><g
         id="g46"><g
           clip-path="url(#clipPath50)"
           id="g48"><g
             transform="translate(148.8366,58.1709)"
             id="g54"><path
               inkscape:connector-curvature="0"
               id="path56"
               style="fill:#231f20;fill-opacity:1;fill-rule:nonzero;stroke:none"
               d="m 0,0 0,16.625 2.859,0 0,-16.868 c 0,-2.37 1.184,-3.435 3.068,-3.435 l 6.415,0 0,-2.492 -6.17,0 C 2.128,-6.17 0,-4.043 0,0" /></g><g
             transform="translate(163.633,58.4146)"
             id="g58"><path
               inkscape:connector-curvature="0"
               id="path60"
               style="fill:#231f20;fill-opacity:1;fill-rule:nonzero;stroke:none"
               d="m 0,0 0,3.312 c 0,4.529 3.069,7.142 7.11,7.142 3.313,0 5.684,-1.428 5.684,-4.77 0,-2.949 -1.882,-4.742 -5.197,-4.742 l -4.984,0 0,-0.942 c 0,-3.102 1.884,-4.286 4.497,-4.286 1.886,0 3.802,0.73 4.499,1.064 l 0.242,0 0,-2.371 C 11.153,-5.927 8.996,-6.656 7.11,-6.656 3.069,-6.656 0,-4.741 0,0 m 6.867,3.099 c 2.613,0 3.344,0.943 3.344,2.585 0,1.792 -1.215,2.4 -3.101,2.4 -2.856,0 -4.497,-1.428 -4.497,-4.772 l 0,-0.213 4.254,0 z" /></g><g
             transform="translate(179.6099,60.5415)"
             id="g62"><path
               inkscape:connector-curvature="0"
               id="path64"
               style="fill:#231f20;fill-opacity:1;fill-rule:nonzero;stroke:none"
               d="m 0,0 c 0,4.984 2.371,8.327 7.234,8.327 5.107,0 7.234,-3.343 7.234,-8.327 0,-5.441 -2.372,-8.782 -7.234,-8.782 C 2.129,-8.782 0,-5.441 0,0 m 11.853,0 c 0,3.678 -1.063,5.957 -4.619,5.957 C 3.68,5.957 2.616,3.678 2.616,0 c 0,-3.678 1.064,-6.413 4.618,-6.413 3.556,0 4.619,2.735 4.619,6.413" /></g></g></g><g
         transform="translate(17.2611,46.9209)"
         id="g66"><path
           inkscape:connector-curvature="0"
           id="path68"
           style="fill:#231f20;fill-opacity:1;fill-rule:nonzero;stroke:none"
           d="m 0,0 2.859,0 0,-9.483 11.153,0 0,9.483 2.826,0 0,-22.795 -2.826,0 0,10.79 -11.153,0 0,-10.79 -2.859,0 L 0,0 Z" /></g><g
         id="g70"><g
           clip-path="url(#clipPath74)"
           id="g72"><g
             transform="translate(38.5291,30.5382)"
             id="g78"><path
               inkscape:connector-curvature="0"
               id="path80"
               style="fill:#231f20;fill-opacity:1;fill-rule:nonzero;stroke:none"
               d="m 0,0 0,3.314 c 0,4.528 3.069,7.142 7.11,7.142 3.314,0 5.685,-1.428 5.685,-4.771 0,-2.948 -1.883,-4.742 -5.198,-4.742 l -4.984,0 0,-0.943 c 0,-3.098 1.884,-4.283 4.497,-4.283 1.886,0 3.802,0.727 4.499,1.063 l 0.243,0 0,-2.37 C 11.153,-5.927 8.996,-6.655 7.11,-6.655 3.069,-6.655 0,-4.741 0,0 m 6.868,3.1 c 2.612,0 3.343,0.943 3.343,2.585 0,1.793 -1.215,2.399 -3.101,2.399 -2.855,0 -4.497,-1.426 -4.497,-4.77 l 0,-0.214 4.255,0 z" /></g><g
             transform="translate(55.3844,40.7514)"
             id="g82"><path
               inkscape:connector-curvature="0"
               id="path84"
               style="fill:#231f20;fill-opacity:1;fill-rule:nonzero;stroke:none"
               d="m 0,0 2.616,0 0,-3.071 1.184,1.155 c 1.186,1.186 2.615,2.158 4.74,2.158 1.978,0 3.648,-1.063 4.286,-3.344 l 0.213,0 1.215,1.186 c 1.156,1.156 2.584,2.158 4.742,2.158 2.613,0 4.499,-1.427 4.499,-5.714 l 0,-11.153 -2.613,0 0,11.153 c 0,2.613 -1.185,3.344 -2.616,3.344 -1.641,0 -3.311,-1.671 -4.254,-2.613 l -0.973,-0.943 0,-10.941 -2.583,0 0,11.153 c 0,2.613 -1.215,3.344 -2.614,3.344 -1.67,0 -3.343,-1.671 -4.286,-2.613 l -0.94,-0.943 0,-10.941 -2.616,0 L 0,0 Z" /></g><g
             transform="translate(83.2919,30.5382)"
             id="g86"><path
               inkscape:connector-curvature="0"
               id="path88"
               style="fill:#231f20;fill-opacity:1;fill-rule:nonzero;stroke:none"
               d="m 0,0 0,3.314 c 0,4.528 3.069,7.142 7.11,7.142 3.313,0 5.685,-1.428 5.685,-4.771 0,-2.948 -1.885,-4.742 -5.198,-4.742 l -4.984,0 0,-0.943 c 0,-3.098 1.883,-4.283 4.497,-4.283 1.886,0 3.8,0.727 4.499,1.063 l 0.242,0 0,-2.37 C 11.153,-5.927 8.996,-6.655 7.11,-6.655 3.069,-6.655 0,-4.741 0,0 m 6.868,3.1 c 2.612,0 3.343,0.943 3.343,2.585 0,1.793 -1.215,2.399 -3.101,2.399 -2.855,0 -4.497,-1.426 -4.497,-4.77 l 0,-0.214 4.255,0 z" /></g></g></g><g
         transform="translate(99.984,44.55)"
         id="g90"><path
           inkscape:connector-curvature="0"
           id="path92"
           style="fill:#231f20;fill-opacity:1;fill-rule:nonzero;stroke:none"
           d="m 0,0 -2.856,0 0,2.371 5.472,0 0,-22.795 -2.616,0 L 0,0 Z" /></g><g
         id="g94"><g
           clip-path="url(#clipPath98)"
           id="g96"><g
             transform="translate(107.0742,24.4897)"
             id="g102"><path
               inkscape:connector-curvature="0"
               id="path104"
               style="fill:#231f20;fill-opacity:1;fill-rule:nonzero;stroke:none"
               d="m 0,0 0,2.371 0.242,0 c 1.307,-0.334 3.069,-0.607 4.62,-0.607 2.614,0 4.042,0.728 4.042,2.615 0,1.426 -1.215,2.065 -2.613,2.37 L 3.798,7.354 c -2.249,0.518 -3.92,1.795 -3.92,4.379 0,2.979 2.492,4.771 6.413,4.771 1.672,0 3.222,-0.243 4.407,-0.486 l 0,-2.37 -0.242,0 c -1.248,0.243 -2.584,0.486 -4.165,0.486 -2.493,0 -3.799,-0.731 -3.799,-2.401 0,-1.52 1.032,-1.673 2.37,-2.007 L 6.9,9.24 C 9.483,8.631 11.518,7.6 11.518,4.379 11.518,0.7 8.327,-0.606 4.862,-0.606 3.222,-0.606 1.185,-0.363 0,0" /></g><g
             transform="translate(122.1253,29.5977)"
             id="g106"><path
               inkscape:connector-curvature="0"
               id="path108"
               style="fill:#231f20;fill-opacity:1;fill-rule:nonzero;stroke:none"
               d="m 0,0 0,2.613 c 0,5.227 4.255,8.54 8.782,8.54 l 1.884,0 0,6.17 2.613,0 0,-22.795 -2.613,0 0,3.069 -1.185,-1.153 C 8.296,-4.774 6.868,-5.714 4.74,-5.714 2.126,-5.714 0,-4.043 0,0 m 9.726,-0.73 0.94,0.944 0,8.569 -1.884,0 C 5.197,8.783 2.613,6.412 2.613,2.613 L 2.613,0 c 0,-2.616 1.186,-3.344 2.584,-3.344 1.671,0 3.585,1.671 4.529,2.614" /></g><g
             transform="translate(139.8271,29.5977)"
             id="g110"><path
               inkscape:connector-curvature="0"
               id="path112"
               style="fill:#231f20;fill-opacity:1;fill-rule:nonzero;stroke:none"
               d="m 0,0 0,2.613 c 0,5.227 4.254,8.54 8.782,8.54 l 4.5,0 0,-16.625 -2.616,0 0,3.069 L 9.48,-3.556 C 8.295,-4.774 6.867,-5.714 4.739,-5.714 2.126,-5.714 0,-4.043 0,0 m 9.726,-0.73 0.94,0.944 0,8.569 -1.884,0 C 5.197,8.783 2.613,6.412 2.613,2.613 L 2.613,0 c 0,-2.616 1.185,-3.344 2.584,-3.344 1.67,0 3.585,1.671 4.529,2.614" /></g><g
             transform="translate(157.5685,30.5382)"
             id="g114"><path
               inkscape:connector-curvature="0"
               id="path116"
               style="fill:#231f20;fill-opacity:1;fill-rule:nonzero;stroke:none"
               d="m 0,0 0,3.314 c 0,4.528 3.069,7.142 7.11,7.142 3.313,0 5.685,-1.428 5.685,-4.771 0,-2.948 -1.883,-4.742 -5.198,-4.742 l -4.984,0 0,-0.943 c 0,-3.098 1.884,-4.283 4.497,-4.283 1.886,0 3.802,0.727 4.499,1.063 l 0.242,0 0,-2.37 C 11.153,-5.927 8.996,-6.655 7.11,-6.655 3.069,-6.655 0,-4.741 0,0 m 6.867,3.1 c 2.613,0 3.344,0.943 3.344,2.585 0,1.793 -1.215,2.399 -3.101,2.399 -2.856,0 -4.497,-1.426 -4.497,-4.77 l 0,-0.214 4.254,0 z" /></g></g></g><g
         transform="translate(174.2605,44.55)"
         id="g118"><path
           inkscape:connector-curvature="0"
           id="path120"
           style="fill:#231f20;fill-opacity:1;fill-rule:nonzero;stroke:none"
           d="m 0,0 -2.855,0 0,2.371 5.471,0 0,-22.795 -2.616,0 L 0,0 Z" /></g><g
         id="g122"><g
           clip-path="url(#clipPath126)"
           id="g124"><g
             transform="translate(181.2837,30.5382)"
             id="g130"><path
               inkscape:connector-curvature="0"
               id="path132"
               style="fill:#231f20;fill-opacity:1;fill-rule:nonzero;stroke:none"
               d="m 0,0 0,3.314 c 0,4.528 3.069,7.142 7.11,7.142 3.314,0 5.685,-1.428 5.685,-4.771 0,-2.948 -1.883,-4.742 -5.198,-4.742 l -4.984,0 0,-0.943 c 0,-3.098 1.884,-4.283 4.497,-4.283 1.886,0 3.802,0.727 4.499,1.063 l 0.242,0 0,-2.37 C 11.153,-5.927 8.996,-6.655 7.11,-6.655 3.069,-6.655 0,-4.741 0,0 m 6.868,3.1 c 2.613,0 3.343,0.943 3.343,2.585 0,1.793 -1.215,2.399 -3.101,2.399 -2.855,0 -4.497,-1.426 -4.497,-4.77 l 0,-0.214 4.255,0 z" /></g><g
             transform="translate(29.092,12.2147)"
             id="g134"><path
               inkscape:connector-curvature="0"
               id="path136"
               style="fill:#231f20;fill-opacity:1;fill-rule:nonzero;stroke:none"
               d="m 0,0 0,0.655 0.067,0 C 0.428,0.563 0.915,0.487 1.344,0.487 2.065,0.487 2.46,0.688 2.46,1.21 2.46,1.604 2.124,1.78 1.738,1.864 L 1.049,2.032 c -0.621,0.143 -1.083,0.495 -1.083,1.21 0,0.822 0.689,1.318 1.772,1.318 0.462,0 0.89,-0.067 1.218,-0.134 l 0,-0.655 -0.067,0 C 2.544,3.837 2.175,3.905 1.738,3.905 1.049,3.905 0.688,3.703 0.688,3.242 0.688,2.822 0.974,2.78 1.344,2.687 L 1.906,2.553 C 2.62,2.385 3.182,2.1 3.182,1.21 3.182,0.193 2.301,-0.167 1.344,-0.167 0.89,-0.167 0.328,-0.101 0,0" /></g><g
             transform="translate(35.467,14.7424)"
             id="g138"><path
               inkscape:connector-curvature="0"
               id="path140"
               style="fill:#231f20;fill-opacity:1;fill-rule:nonzero;stroke:none"
               d="m 0,0 c 0.722,0 0.923,0.26 0.923,0.714 0,0.496 -0.335,0.663 -0.856,0.663 -0.789,0 -1.243,-0.395 -1.243,-1.318 L -1.176,0 0,0 Z m -1.897,-0.857 0,0.916 c 0,1.251 0.847,1.973 1.964,1.973 0.915,0 1.571,-0.394 1.571,-1.318 0,-0.815 -0.521,-1.311 -1.436,-1.311 l -1.378,0 0,-0.26 c 0,-0.856 0.521,-1.183 1.243,-1.183 0.521,0 1.05,0.201 1.243,0.294 l 0.067,0 0,-0.655 c -0.193,-0.093 -0.789,-0.295 -1.31,-0.295 -1.117,0 -1.964,0.529 -1.964,1.839" /></g><g
             transform="translate(38.2997,14.0204)"
             id="g142"><path
               inkscape:connector-curvature="0"
               id="path144"
               style="fill:#231f20;fill-opacity:1;fill-rule:nonzero;stroke:none"
               d="m 0,0 0,0.781 c 0,1.284 0.982,1.973 1.965,1.973 0.52,0 1.05,-0.168 1.31,-0.327 l 0,-1.185 -0.656,0 0,0.723 C 2.485,2.032 2.217,2.099 1.965,2.099 1.309,2.099 0.722,1.738 0.722,0.781 L 0.722,0 c 0,-0.857 0.454,-1.318 1.243,-1.318 0.52,0 0.948,0.167 1.183,0.294 l 0.059,0 0,-0.655 C 2.947,-1.806 2.485,-1.973 1.965,-1.973 0.781,-1.973 0,-1.318 0,0" /></g><g
             transform="translate(43.0297,13.6259)"
             id="g146"><path
               inkscape:connector-curvature="0"
               id="path148"
               style="fill:#231f20;fill-opacity:1;fill-rule:nonzero;stroke:none"
               d="m 0,0 0,3.081 0.722,0 0,-3.081 c 0,-0.723 0.327,-0.923 0.722,-0.923 0.454,0 0.915,0.461 1.176,0.721 l 0.269,0.261 0,3.022 0.722,0 0,-4.593 -0.722,0 0,0.848 -0.328,-0.318 C 2.217,-1.327 1.839,-1.579 1.243,-1.579 0.521,-1.579 0,-1.184 0,0" /></g><g
             transform="translate(48.4817,16.7075)"
             id="g150"><path
               inkscape:connector-curvature="0"
               id="path152"
               style="fill:#231f20;fill-opacity:1;fill-rule:nonzero;stroke:none"
               d="m 0,0 0.723,0 0,-0.849 0.327,0.32 c 0.328,0.327 0.722,0.596 1.309,0.596 0.723,0 1.244,-0.395 1.244,-1.579 l 0,-3.082 -0.714,0 0,3.082 c 0,0.722 -0.336,0.924 -0.722,0.924 -0.461,0 -0.924,-0.462 -1.185,-0.722 l -0.259,-0.26 0,-3.024 L 0,-4.594 0,0 Z" /></g><g
             transform="translate(56.294,13.4242)"
             id="g154"><path
               inkscape:connector-curvature="0"
               id="path156"
               style="fill:#231f20;fill-opacity:1;fill-rule:nonzero;stroke:none"
               d="m 0,0 0.26,0.26 0,2.368 -0.52,0 c -0.991,0 -1.705,-0.655 -1.705,-1.705 l 0,-0.721 c 0,-0.723 0.327,-0.924 0.714,-0.924 C -0.79,-0.722 -0.26,-0.26 0,0 m -2.687,0.202 0,0.721 c 0,1.445 1.175,2.36 2.427,2.36 l 0.52,0 0,1.705 0.722,0 0,-6.298 -0.722,0 0,0.848 -0.328,-0.319 c -0.327,-0.336 -0.722,-0.596 -1.31,-0.596 -0.722,0 -1.309,0.461 -1.309,1.579" /></g><g
             transform="translate(61.5197,13.4242)"
             id="g158"><path
               inkscape:connector-curvature="0"
               id="path160"
               style="fill:#231f20;fill-opacity:1;fill-rule:nonzero;stroke:none"
               d="m 0,0 0.26,0.26 0,2.368 -0.52,0 c -0.991,0 -1.705,-0.655 -1.705,-1.705 l 0,-0.721 c 0,-0.723 0.327,-0.924 0.714,-0.924 C -0.79,-0.722 -0.26,-0.26 0,0 m -2.687,0.202 0,0.721 c 0,1.445 1.175,2.36 2.427,2.36 l 1.242,0 0,-4.593 -0.722,0 0,0.848 -0.328,-0.319 c -0.327,-0.336 -0.722,-0.596 -1.31,-0.596 -0.722,0 -1.309,0.461 -1.309,1.579" /></g><path
             inkscape:connector-curvature="0"
             id="path162"
             style="fill:#231f20;fill-opacity:1;fill-rule:nonzero;stroke:none"
             d="m 64.479,18.412 0.722,0 0,-0.789 -0.722,0 0,0.789 z m 0,-2.36 -0.782,0 0,0.655 1.504,0 0,-4.593 -0.722,0 0,3.938 z" /><g
             transform="translate(67.0489,16.7075)"
             id="g164"><path
               inkscape:connector-curvature="0"
               id="path166"
               style="fill:#231f20;fill-opacity:1;fill-rule:nonzero;stroke:none"
               d="m 0,0 0.723,0 0,-1.016 0.067,0.1 C 1.134,-0.386 1.537,0 2.133,0 l 0.294,0 0,-0.79 -0.327,0 c -0.328,0 -0.647,-0.126 -0.857,-0.327 l -0.52,-0.521 0,-2.956 L 0,-4.594 0,0 Z" /></g><g
             transform="translate(72.2658,14.7424)"
             id="g168"><path
               inkscape:connector-curvature="0"
               id="path170"
               style="fill:#231f20;fill-opacity:1;fill-rule:nonzero;stroke:none"
               d="m 0,0 c 0.722,0 0.923,0.26 0.923,0.714 0,0.496 -0.335,0.663 -0.856,0.663 -0.789,0 -1.243,-0.395 -1.243,-1.318 L -1.176,0 0,0 Z m -1.897,-0.857 0,0.916 c 0,1.251 0.847,1.973 1.964,1.973 0.915,0 1.571,-0.394 1.571,-1.318 0,-0.815 -0.521,-1.311 -1.436,-1.311 l -1.378,0 0,-0.26 c 0,-0.856 0.521,-1.183 1.243,-1.183 0.521,0 1.05,0.201 1.243,0.294 l 0.067,0 0,-0.655 c -0.193,-0.093 -0.789,-0.295 -1.31,-0.295 -1.117,0 -1.964,0.529 -1.964,1.839" /></g><g
             transform="translate(77.7274,12.2147)"
             id="g172"><path
               inkscape:connector-curvature="0"
               id="path174"
               style="fill:#231f20;fill-opacity:1;fill-rule:nonzero;stroke:none"
               d="m 0,0 0,0.655 0.067,0 C 0.428,0.563 0.915,0.487 1.344,0.487 2.065,0.487 2.46,0.688 2.46,1.21 2.46,1.604 2.124,1.78 1.738,1.864 L 1.049,2.032 c -0.621,0.143 -1.083,0.495 -1.083,1.21 0,0.822 0.689,1.318 1.772,1.318 0.463,0 0.89,-0.067 1.218,-0.134 l 0,-0.655 -0.067,0 C 2.544,3.837 2.175,3.905 1.738,3.905 1.049,3.905 0.688,3.703 0.688,3.242 0.688,2.822 0.974,2.78 1.344,2.687 L 1.906,2.553 C 2.62,2.385 3.182,2.1 3.182,1.21 3.182,0.193 2.301,-0.167 1.344,-0.167 0.89,-0.167 0.328,-0.101 0,0" /></g><g
             transform="translate(82.2058,14.0204)"
             id="g176"><path
               inkscape:connector-curvature="0"
               id="path178"
               style="fill:#231f20;fill-opacity:1;fill-rule:nonzero;stroke:none"
               d="m 0,0 0,0.781 c 0,1.284 0.982,1.973 1.965,1.973 0.52,0 1.05,-0.168 1.31,-0.327 l 0,-1.185 -0.656,0 0,0.723 C 2.485,2.032 2.217,2.099 1.965,2.099 1.309,2.099 0.722,1.738 0.722,0.781 L 0.722,0 c 0,-0.857 0.454,-1.318 1.243,-1.318 0.52,0 0.948,0.167 1.183,0.294 l 0.059,0 0,-0.655 C 2.947,-1.806 2.485,-1.973 1.965,-1.973 0.781,-1.973 0,-1.318 0,0" /></g><g
             transform="translate(86.9686,18.412)"
             id="g180"><path
               inkscape:connector-curvature="0"
               id="path182"
               style="fill:#231f20;fill-opacity:1;fill-rule:nonzero;stroke:none"
               d="m 0,0 0.723,0 0,-2.553 0.327,0.32 c 0.328,0.327 0.722,0.595 1.309,0.595 0.723,0 1.244,-0.394 1.244,-1.578 l 0,-3.082 -0.714,0 0,3.082 c 0,0.721 -0.336,0.924 -0.722,0.924 -0.461,0 -0.924,-0.462 -1.185,-0.723 l -0.259,-0.26 0,-3.023 L 0,-6.298 0,0 Z" /></g><g
             transform="translate(95.3346,14.4737)"
             id="g184"><path
               inkscape:connector-curvature="0"
               id="path186"
               style="fill:#231f20;fill-opacity:1;fill-rule:nonzero;stroke:none"
               d="m 0,0 c 0,1.016 -0.294,1.646 -1.276,1.646 -0.983,0 -1.277,-0.63 -1.277,-1.646 0,-1.016 0.294,-1.771 1.277,-1.771 C -0.294,-1.771 0,-1.016 0,0 m -3.275,0 c 0,1.377 0.655,2.301 1.999,2.301 1.41,0 1.998,-0.924 1.998,-2.301 0,-1.503 -0.655,-2.427 -1.998,-2.427 -1.411,0 -1.999,0.924 -1.999,2.427" /></g><g
             transform="translate(100.5269,14.4737)"
             id="g188"><path
               inkscape:connector-curvature="0"
               id="path190"
               style="fill:#231f20;fill-opacity:1;fill-rule:nonzero;stroke:none"
               d="m 0,0 c 0,1.016 -0.294,1.646 -1.276,1.646 -0.983,0 -1.277,-0.63 -1.277,-1.646 0,-1.016 0.294,-1.771 1.277,-1.771 C -0.294,-1.771 0,-1.016 0,0 m -3.275,0 c 0,1.377 0.655,2.301 1.999,2.301 1.41,0 1.998,-0.924 1.998,-2.301 0,-1.503 -0.655,-2.427 -1.998,-2.427 -1.411,0 -1.999,0.924 -1.999,2.427" /></g><g
             transform="translate(102.7716,17.757)"
             id="g192"><path
               inkscape:connector-curvature="0"
               id="path194"
               style="fill:#231f20;fill-opacity:1;fill-rule:nonzero;stroke:none"
               d="m 0,0 -0.789,0 0,0.655 1.512,0 0,-6.298 L 0,-5.643 0,0 Z" /></g></g></g><g
         id="g196"><g
           id="g198"><g
             id="g204"><g
               id="g206"><path
                 inkscape:connector-curvature="0"
                 id="path214"
                 style="fill:url(#linearGradient208);stroke:none"
                 d="m 38.84,130.701 c -0.159,-0.01 -0.317,-0.022 -0.478,-0.039 l 0,0 -0.213,-0.023 c -1.498,-0.179 -3.09,-0.657 -4.752,-1.494 l 0,0 c 6.288,-4.445 12.912,-8.513 14.854,-17.85 l 0,0 c 5.494,7.91 0.437,19.425 -8.753,19.425 l 0,0 c -0.217,0 -0.436,-0.006 -0.658,-0.019 M 51.197,111.47 c 1.331,0.573 2.567,0.862 3.728,0.931 l 0,0 c 1.15,0.068 2.224,-0.081 3.243,-0.389 l 0,0 c 0.761,1.42 1.296,2.719 1.642,3.912 l 0,0 -0.002,-0.002 0.019,0.057 c 2.699,9.396 -6.3,11.971 -7.514,12.275 l 0,0 -0.138,0.031 c -0.733,-3.733 1.749,-12.481 -0.978,-16.815 m -24.39,15.279 c -0.189,-0.012 -0.375,-0.028 -0.56,-0.048 l 0,0 c -3.324,-0.364 -6.291,-2.243 -8.103,-6.34 l 0,0 c 0.066,0.003 0.133,0.008 0.198,0.01 l 0,0 c 12.375,0.732 21.149,-2.593 26.962,-9.25 l 0,0 c 0.827,6.723 -9.291,15.648 -17.803,15.648 l 0,0 c -0.233,0 -0.464,-0.007 -0.694,-0.02 m -1.686,-9.896 c -0.453,-0.026 -0.906,-0.065 -1.354,-0.113 l 0,0 C 13.564,115.62 4.348,108.706 5.521,97.671 l 0,0 0.013,-0.127 C 5.885,94.441 7.056,91.017 9.253,87.306 l 0,0 c 1.143,13.65 11.686,22.126 26.184,22.982 l 0,0 c 2.543,0.149 5.203,0.066 7.96,-0.264 l 0,0 c -4.216,4.707 -10.471,6.876 -16.691,6.876 l 0,0 c -0.53,0 -1.058,-0.015 -1.585,-0.047 m 37.191,-2.65 -0.021,-0.056 0.004,0.002 c -0.347,-1.192 -0.881,-2.492 -1.643,-3.913 l 0,0 c -0.01,0.005 -0.02,0.006 -0.03,0.009 l 0,0 c 0.194,-0.177 2.969,-2.72 3.615,-3.03 l 0,0 c 0.668,-0.32 2.215,-0.449 3.347,-1.317 l 0,0 c 1.131,-0.871 3.368,-4.288 3.883,-4.904 l 0,0 c 0.519,-0.618 4.459,-2.423 4.459,-2.423 l 0,0 c 0,0 -2.548,2.152 -3.391,3.061 l 0,0 c -0.845,0.91 -1.636,4.334 -3.379,5.461 l 0,0 c -1.738,1.126 -3.667,2.091 -4.247,3.017 l 0,0 c -0.396,0.622 -1.605,3.387 -2.348,5.116 l 0,0 c -0.07,-0.333 -0.149,-0.671 -0.249,-1.023 m -25.527,-6.982 c -0.856,-0.051 -1.705,-0.122 -2.544,-0.215 l 0,0 C 24.446,105.932 16.01,101.988 13.757,94.474 l 0,0 C 9.998,81.926 20.538,75.744 26.271,66.584 l 0,0 c 0.653,-1.249 1.413,-4.057 -2.566,-7.008 l 0,0 c 12.3,2.811 -2.418,26.605 3.525,38.461 l 0,0 c 2.303,5.83 13.867,8.384 16.904,8.959 l 0,0 c 0.141,0.046 0.274,0.094 0.418,0.139 l 0,0 c -1.515,0.118 -3.037,0.18 -4.549,0.18 l 0,0 c -1.08,0 -2.154,-0.031 -3.218,-0.094 m -1.653,-4.566 C 19.727,93.508 45.637,55.426 23.473,49.726 l 0,0 c 2.969,-0.931 6.036,-1.239 8.969,-1.068 l 0,0 c 8.009,0.474 14.997,4.554 16.162,9.451 l 0,0 c 3.324,13.969 -28.879,39.64 -3.259,47.994 l 0,0 c -3.038,-0.576 -8.442,-2.533 -10.213,-3.448 m 8.1,-21.853 c 8.69,1.839 13.484,-0.715 15.337,-6.568 l 0,0 c 1.555,2.148 0.423,6.683 1.314,9.421 l 0,0 C 44.677,79.843 38.59,94.558 45.582,104.299 l 0,0 c -8.38,-2.175 -6.572,-17.462 -2.35,-23.497 m 14.975,19.002 c -0.484,-2.378 6.585,-4.766 6.585,-4.766 l 0,0 -1.976,2.185 c 0,0 0.594,0.514 0.583,1.545 l 0,0 c -0.013,1.029 -0.537,1.335 -0.537,1.335 l 0,0 2.695,1.91 c 0,0 -7.178,-1.355 -7.35,-2.209 m 24.15,-9.31 c -0.115,-0.012 -0.236,-0.03 -0.362,-0.052 l 0,0 c -1.377,-0.249 -2.18,-1.688 -3.168,-2.008 l 0,0 c -0.988,-0.323 -2.593,0.039 -2.593,0.039 l 0,0 c 0,0 -0.478,-0.006 0.059,-1.747 l 0,0 c 0.533,-1.743 2.549,-1.246 2.922,-4.024 l 0,0 c 0.146,-5.342 -2.706,-7.108 -6.59,-7.776 l 0,0 c -2.308,-0.395 -4.261,-0.062 -5.759,0.322 l 0,0 c -1.692,0.434 -2.805,0.932 -3.186,0.514 l 0,0 c -0.723,-0.783 1.504,-2.763 2.313,-3.052 l 0,0 c 0.495,-0.176 3.382,-0.356 6.381,0.137 l 0,0 C 72.241,70.754 71.944,68.26 71.57,67.914 l 0,0 c -0.069,-0.023 -0.14,-0.04 -0.213,-0.058 l 0,0 c -0.364,-0.003 -1.068,0.222 -1.755,0.47 l 0,0 C 69.217,65.405 68.008,60.058 64.269,57.105 l 0,0 c 5.565,1.013 7.266,8.573 10.579,13.262 l 0,0 c 0.658,0.93 2.942,1.571 3.483,2.594 l 0,0 c 1.609,3.04 2.661,6.517 2.95,10.541 l 0,0 c 0.416,0.727 1.538,1.962 2.074,2.607 l 0,0 c 0.628,0.757 1.406,3.417 1.069,3.805 l 0,0 c -0.261,0.303 -0.756,0.606 -1.614,0.606 l 0,0 c -0.141,0 -0.291,-0.008 -0.453,-0.026" /></g></g></g></g><path
         inkscape:connector-curvature="0"
         id="path216"
         style="fill:#00adef;fill-opacity:1;fill-rule:nonzero;stroke:none"
         d="m 17.261,12.052 6.535,0 0,6.533 -6.535,0 0,-6.533 z" /><path
         inkscape:connector-curvature="0"
         id="path218"
         style="fill:#00adef;fill-opacity:1;fill-rule:nonzero;stroke:none"
         d="m 108.698,12.052 85.011,0 0,6.533 -85.011,0 0,-6.533 z" /></g></g></svg>